<svg width="156" height="52" viewBox="0 0 156 52" fill="none" xmlns="http://www.w3.org/2000/svg">
<path fill-rule="evenodd" clip-rule="evenodd" d="M6.03396 0H149.966C152.064 0 152.825 0.219334 153.592 0.631777C154.35 1.03476 154.97 1.65733 155.371 2.41863C155.781 3.18868 156 3.95278 156 6.06029V45.9397C156 48.0472 155.781 48.8113 155.371 49.5814C154.97 50.3427 154.35 50.9652 153.592 51.3682C152.825 51.7807 152.064 52 149.966 52H6.03396C3.93561 52 3.17483 51.7807 2.40813 51.3682C1.64991 50.9653 1.02983 50.3428 0.628439 49.5814C0.218974 48.8113 0 48.0472 0 45.9397V6.06029C0 3.95278 0.218381 3.18868 0.629032 2.41863C1.03017 1.6571 1.65004 1.03432 2.40813 0.631181C3.17483 0.220526 3.93561 0 6.03396 0Z" fill="white"/>
<path d="M34.9564 24.7288C34.9255 21.3357 37.79 19.6853 37.9211 19.6085C36.2987 17.2888 33.7838 16.9723 32.9007 16.9467C30.7881 16.7285 28.7396 18.1864 27.6638 18.1864C26.5665 18.1864 24.9103 16.9675 23.124 17.0039C20.8269 17.0384 18.6769 18.3425 17.4984 20.3684C15.0653 24.4988 16.88 30.5686 19.211 33.9069C20.3765 35.5429 21.739 37.3674 23.5228 37.3036C25.2675 37.2338 25.9191 36.2135 28.0246 36.2135C30.111 36.2135 30.7229 37.3036 32.5417 37.2625C34.414 37.2338 35.5931 35.6198 36.7183 33.9701C38.0653 32.0968 38.6071 30.2503 38.6285 30.1556C38.5858 30.1407 34.9932 28.7955 34.9564 24.7294V24.7288ZM31.5204 14.7503C32.4592 13.6 33.1013 12.0343 32.9227 10.4453C31.5643 10.5049 29.8666 11.3668 28.8874 12.492C28.0228 13.4838 27.2495 15.1097 27.4489 16.6385C28.9746 16.75 30.5413 15.8834 31.5204 14.7503ZM58.5035 10.9668H60.8986C61.6724 10.9668 62.3489 11.1248 62.9275 11.4401C63.4926 11.7416 63.9564 12.204 64.261 12.7692C64.5713 13.3396 64.7268 13.9928 64.7268 14.7277C64.7268 15.4632 64.5713 16.1164 64.261 16.6868C63.9564 17.252 63.4926 17.7143 62.9275 18.0159C62.3489 18.3312 61.6724 18.4885 60.898 18.4885H58.503V10.9668H58.5035ZM60.8773 17.3645C61.714 17.3645 62.3679 17.132 62.8385 16.6659C63.3091 16.2004 63.5447 15.5544 63.5447 14.7277C63.5447 13.9088 63.3091 13.2645 62.8385 12.7948C62.3679 12.3257 61.714 12.0915 60.8773 12.0915H59.6744V17.3645H60.8773ZM68.2197 18.6566C67.6833 18.6566 67.202 18.5327 66.7765 18.2841C66.3573 18.0416 66.0133 17.6869 65.7831 17.2596C65.5457 16.8257 65.4271 16.3417 65.4271 15.8101C65.4271 15.2778 65.5457 14.7944 65.7831 14.3599C66.0134 13.9328 66.3573 13.5783 66.7765 13.336C67.202 13.0875 67.6833 12.9629 68.2197 12.9629C68.7568 12.9629 69.238 13.0892 69.6635 13.3414C70.0822 13.5867 70.4258 13.9427 70.6569 14.3707C70.8943 14.8052 71.013 15.2844 71.013 15.8101C71.013 16.3423 70.8943 16.8257 70.6569 17.2596C70.4267 17.6869 70.0828 18.0416 69.6635 18.2841C69.238 18.5327 68.7568 18.6566 68.2197 18.6566ZM68.2197 17.5957C68.5129 17.5957 68.7847 17.5242 69.0357 17.3806C69.2867 17.2369 69.4873 17.0301 69.6374 16.7607C69.787 16.4907 69.8623 16.1742 69.8623 15.8101C69.8623 15.4459 69.787 15.1306 69.6368 14.8642C69.4964 14.608 69.2884 14.3956 69.0357 14.2503C68.7874 14.1073 68.5059 14.0328 68.2197 14.0345C67.9272 14.0345 67.6554 14.106 67.4044 14.2497C67.1533 14.3933 66.9528 14.5984 66.8026 14.8642C66.6531 15.1306 66.5777 15.4459 66.5777 15.8101C66.5777 16.1736 66.6531 16.4907 66.8032 16.7607C66.9528 17.0301 67.1533 17.2369 67.4044 17.3806C67.6554 17.5236 67.9266 17.5957 68.2197 17.5957ZM71.3684 13.1316H72.6129L73.6905 16.9657H73.7321L74.9349 13.131H76.117L77.3092 16.9657H77.3508L78.4284 13.131H79.6521L77.9472 18.4891H76.7342L75.51 14.6436H75.4785L74.2655 18.4885H73.0728L71.3684 13.131V13.1316ZM80.3945 13.1316H81.4929V13.8349H81.5451C81.6988 13.5827 81.9273 13.3747 82.2305 13.2096C82.5271 13.0468 82.8598 12.962 83.1978 12.9629C83.8464 12.9629 84.3396 13.1536 84.6778 13.5351C85.0161 13.9171 85.1852 14.4374 85.1852 15.0954V18.4885H84.0345V15.2534C84.0345 14.8332 83.9319 14.525 83.726 14.329C83.52 14.1323 83.2364 14.0345 82.8738 14.0345C82.6157 14.0345 82.3854 14.106 82.1831 14.2497C81.9813 14.3933 81.824 14.584 81.7125 14.8219C81.6009 15.0603 81.5451 15.3166 81.5451 15.5895V18.4885H80.3945V13.131V13.1316ZM86.4818 10.9668H87.6331V18.4885H86.4818V10.9668ZM91.4292 18.6566C90.8922 18.6566 90.4115 18.5327 89.986 18.2841C89.5666 18.0417 89.2224 17.687 88.992 17.2596C88.7552 16.8257 88.6366 16.3417 88.6366 15.8101C88.6366 15.2778 88.7552 14.7944 88.9926 14.3599C89.2229 13.9328 89.5668 13.5783 89.986 13.336C90.4115 13.0875 90.8922 12.9629 91.4292 12.9629C91.9663 12.9629 92.4475 13.0892 92.873 13.3414C93.2917 13.5867 93.6353 13.9427 93.8664 14.3707C94.1038 14.8052 94.2225 15.2844 94.2225 15.8101C94.2225 16.3423 94.1038 16.8257 93.8664 17.2596C93.6362 17.6869 93.2923 18.0416 92.873 18.2841C92.4475 18.5327 91.9663 18.6566 91.4292 18.6566ZM91.4292 17.5957C91.7224 17.5957 91.9942 17.5242 92.2452 17.3806C92.4962 17.2369 92.6962 17.0301 92.8463 16.7607C92.9965 16.4907 93.0718 16.1742 93.0718 15.8101C93.0718 15.4459 92.9965 15.1306 92.8463 14.8642C92.7059 14.608 92.4979 14.3956 92.2452 14.2503C91.9969 14.1073 91.7154 14.0328 91.4292 14.0345C91.1367 14.0345 90.8643 14.106 90.6133 14.2497C90.3623 14.3933 90.1623 14.5984 90.0121 14.8642C89.862 15.1306 89.7872 15.4459 89.7872 15.8101C89.7872 16.1736 89.862 16.4907 90.0121 16.7607C90.1623 17.0301 90.3623 17.2369 90.6133 17.3806C90.8643 17.5236 91.1367 17.5957 91.4292 17.5957ZM96.9517 18.6566C96.5683 18.6566 96.2265 18.5815 95.9268 18.4307C95.637 18.2891 95.3939 18.0666 95.2266 17.79C95.0571 17.5064 94.97 17.1808 94.975 16.8501C94.975 16.2964 95.1827 15.8589 95.5975 15.5365C96.0129 15.2146 96.5368 15.0537 97.1718 15.0537C97.4851 15.0537 97.7676 15.0835 98.0186 15.1431C98.2697 15.2027 98.4685 15.2671 98.615 15.3374V15.0638C98.615 14.7348 98.4928 14.4672 98.2489 14.2604C98.005 14.0536 97.6911 13.9505 97.3077 13.9505C97.0353 13.9505 96.7796 14.0101 96.5386 14.1293C96.3064 14.2413 96.1065 14.4112 95.9583 14.6228L95.153 14.0029C95.3904 13.6739 95.6966 13.4182 96.0728 13.2365C96.4496 13.0541 96.868 12.9629 97.3285 12.9629C98.1023 12.9629 98.6987 13.1536 99.1171 13.5351C99.5354 13.9171 99.7443 14.4547 99.7443 15.1479V18.4885H98.615V17.8478H98.5628C98.4091 18.0791 98.1931 18.2716 97.9142 18.426C97.6353 18.5797 97.3148 18.6566 96.9517 18.6566ZM97.1505 17.7006C97.4294 17.7006 97.6804 17.6345 97.9041 17.5009C98.1266 17.368 98.3017 17.1898 98.4263 16.9657C98.5513 16.7447 98.6163 16.4946 98.615 16.2404C98.4387 16.143 98.2506 16.0689 98.0554 16.0198C97.8384 15.9634 97.615 15.9354 97.3908 15.9364C96.9588 15.9364 96.6419 16.0216 96.4395 16.1933C96.2372 16.3649 96.1363 16.5873 96.1363 16.8608C96.1363 17.1052 96.2301 17.3066 96.4188 17.4646C96.6069 17.6219 96.8508 17.7006 97.1505 17.7006ZM103.227 18.6566C102.746 18.6566 102.311 18.5344 101.92 18.2889C101.527 18.0406 101.207 17.6907 100.995 17.2757C100.768 16.8447 100.655 16.356 100.655 15.8095C100.655 15.2635 100.767 14.7754 100.995 14.3444C101.207 13.9294 101.527 13.5795 101.92 13.3312C102.312 13.0855 102.766 12.9576 103.228 12.9629C103.604 12.9629 103.942 13.0469 104.242 13.215C104.542 13.3831 104.769 13.5899 104.922 13.8349H104.974L104.922 13.0785V10.9668H106.073V18.4885H104.975V17.7954H104.922C104.769 18.0338 104.542 18.2364 104.242 18.4045C103.931 18.5754 103.581 18.6623 103.227 18.6566ZM103.395 17.5957C103.674 17.5957 103.933 17.5224 104.174 17.3752C104.415 17.228 104.608 17.0176 104.755 16.7446C104.901 16.4716 104.974 16.1605 104.974 15.8101C104.974 15.4596 104.901 15.1497 104.755 14.8803C104.62 14.6235 104.42 14.4076 104.174 14.255C103.939 14.1105 103.668 14.034 103.392 14.034C103.117 14.034 102.846 14.1105 102.611 14.255C102.363 14.4063 102.16 14.6224 102.025 14.8803C101.878 15.1497 101.805 15.4596 101.805 15.8101C101.805 16.1599 101.878 16.4716 102.025 16.7446C102.171 17.0182 102.367 17.228 102.611 17.3752C102.854 17.5224 103.116 17.5957 103.395 17.5957ZM112.359 18.6566C111.822 18.6566 111.34 18.5327 110.915 18.2841C110.496 18.0416 110.152 17.6869 109.922 17.2596C109.684 16.8257 109.566 16.3417 109.566 15.8101C109.566 15.2778 109.684 14.7944 109.922 14.3599C110.152 13.9328 110.496 13.5783 110.915 13.336C111.34 13.0875 111.822 12.9629 112.359 12.9629C112.895 12.9629 113.377 13.0892 113.802 13.3414C114.221 13.5867 114.564 13.9427 114.795 14.3707C115.033 14.8052 115.151 15.2844 115.151 15.8101C115.151 16.3423 115.033 16.8257 114.795 17.2596C114.565 17.6869 114.221 18.0416 113.802 18.2841C113.377 18.5327 112.895 18.6566 112.359 18.6566ZM112.359 17.5957C112.651 17.5957 112.923 17.5242 113.174 17.3806C113.425 17.2369 113.626 17.0301 113.776 16.7607C113.926 16.4907 114.001 16.1742 114.001 15.8101C114.001 15.4459 113.926 15.1306 113.775 14.8642C113.635 14.608 113.427 14.3956 113.174 14.2503C112.926 14.1074 112.645 14.033 112.359 14.0345C112.066 14.0345 111.794 14.106 111.543 14.2497C111.292 14.3933 111.092 14.5984 110.941 14.8642C110.792 15.1306 110.716 15.4459 110.716 15.8101C110.716 16.1736 110.792 16.4907 110.942 16.7607C111.091 17.0301 111.292 17.2369 111.543 17.3806C111.794 17.5236 112.066 17.5957 112.359 17.5957ZM116.103 13.1316H117.201V13.8349H117.253C117.407 13.5827 117.636 13.3747 117.939 13.2096C118.235 13.0468 118.568 12.962 118.906 12.9629C119.555 12.9629 120.048 13.1536 120.386 13.5351C120.724 13.9171 120.893 14.4374 120.893 15.0954V18.4885H119.743V15.2534C119.743 14.8332 119.64 14.525 119.434 14.329C119.229 14.1323 118.945 14.0345 118.582 14.0345C118.324 14.0345 118.094 14.106 117.892 14.2497C117.69 14.3933 117.532 14.584 117.421 14.8219C117.309 15.0603 117.253 15.3166 117.253 15.5895V18.4885H116.103V13.131V13.1316ZM126.824 18.5732C126.587 18.5732 126.364 18.5344 126.155 18.457C125.945 18.3801 125.775 18.2782 125.642 18.153C125.342 17.8514 125.192 17.4419 125.192 16.9234V14.1501H124.261V13.131H125.193V11.6183H126.343V13.131H127.64V14.1501H126.343V16.6713C126.343 16.9586 126.399 17.1618 126.51 17.2804C126.615 17.4205 126.796 17.4908 127.054 17.4908C127.173 17.4908 127.277 17.4747 127.368 17.4431C127.459 17.4121 127.556 17.3609 127.661 17.2912V18.4152C127.431 18.5201 127.152 18.5726 126.824 18.5726V18.5732ZM128.79 10.9668H129.941V13.0153L129.889 13.8349H129.941C130.095 13.5827 130.322 13.3747 130.626 13.2096C130.926 13.0459 131.262 12.961 131.604 12.9629C132.252 12.9629 132.748 13.1536 133.089 13.5351C133.431 13.9171 133.602 14.4374 133.602 15.0954V18.4885H132.451V15.2534C132.451 14.8469 132.344 14.5423 132.132 14.3391C131.919 14.1364 131.642 14.0345 131.3 14.0345C131.043 14.0345 130.811 14.1078 130.605 14.255C130.396 14.4052 130.229 14.6056 130.118 14.8379C130 15.0799 129.941 15.3374 129.941 15.6104V18.4891H128.79V10.9668ZM137.346 18.6566C136.823 18.6566 136.354 18.5344 135.94 18.2889C135.528 18.0478 135.192 17.6971 134.967 17.2757C134.733 16.8447 134.616 16.3596 134.616 15.8202C134.612 15.3251 134.729 14.8365 134.956 14.3969C135.173 13.9697 135.5 13.6087 135.903 13.3515C136.307 13.0928 136.768 12.9629 137.283 12.9629C137.82 12.9629 138.286 13.0821 138.68 13.3205C139.074 13.5583 139.374 13.8837 139.579 14.2974C139.785 14.7104 139.888 15.1759 139.888 15.6944C139.888 15.7922 139.877 15.9149 139.856 16.0622H135.767C135.808 16.5592 135.985 16.9425 136.295 17.2125C136.593 17.4776 136.979 17.6217 137.378 17.6166C137.705 17.6166 137.989 17.5415 138.23 17.3907C138.471 17.2405 138.664 17.0355 138.81 16.7768L139.783 17.2387C139.548 17.6632 139.21 18.0209 138.8 18.2787C138.395 18.5309 137.911 18.6566 137.346 18.6566ZM138.716 15.1795C138.7 14.9811 138.639 14.7891 138.538 14.6174C138.424 14.422 138.26 14.2607 138.062 14.1501C137.85 14.0238 137.59 13.9612 137.283 13.9612C136.914 13.9612 136.601 14.0715 136.347 14.292C136.092 14.5125 135.917 14.8081 135.819 15.1801H138.716V15.1795ZM61.6143 26.2624H64.439L69.3419 39.3682H66.6264L65.5327 36.2379H60.539L59.4459 39.3682H56.7304L61.6143 26.2624ZM64.731 33.9689L63.5827 30.6735L63.1091 29.1H62.9631L62.489 30.6735L61.3229 33.9683H64.731V33.9689ZM70.054 30.0334H72.2954V31.1682H72.4414C72.6965 30.7653 73.0674 30.4267 73.5528 30.152C74.0395 29.8778 74.5979 29.7407 75.2299 29.7407C76.0684 29.7407 76.8303 29.9505 77.5169 30.3719C78.2035 30.7927 78.7412 31.3816 79.1299 32.1379C79.5186 32.8948 79.7132 33.7489 79.7132 34.7008C79.7132 35.6645 79.5186 36.5222 79.1299 37.2726C78.7412 38.023 78.2035 38.6089 77.5169 39.0296C76.8303 39.4504 76.0684 39.6614 75.2299 39.6614C74.5979 39.6614 74.0359 39.5267 73.5445 39.2585C73.052 38.9903 72.6841 38.6541 72.4414 38.2512H72.2954L72.4414 39.5696V43.3215H70.054V30.0334ZM74.8109 37.446C75.2601 37.446 75.6791 37.3304 76.0684 37.0985C76.4591 36.8646 76.7801 36.5295 76.9977 36.1282C77.2285 35.7134 77.3437 35.2378 77.3437 34.7008C77.3437 34.1638 77.2285 33.6875 76.9977 33.2727C76.7814 32.873 76.46 32.5406 76.0684 32.3119C75.6867 32.0881 75.2523 31.9712 74.8103 31.9734C74.373 31.9734 73.9599 32.0867 73.5712 32.3119C73.1796 32.5406 72.8582 32.873 72.6419 33.2727C72.4111 33.6875 72.2954 34.1638 72.2954 34.7008C72.2954 35.2372 72.4111 35.714 72.6419 36.1282C72.8596 36.5295 73.1805 36.8646 73.5712 37.0985C73.945 37.3261 74.3738 37.4463 74.8109 37.446ZM80.5529 30.0334H82.7949V31.1682H82.9403C83.1954 30.7653 83.5663 30.4267 84.0523 30.152C84.5378 29.8778 85.0968 29.7407 85.7288 29.7407C86.5673 29.7407 87.3292 29.9505 88.0158 30.3719C88.7024 30.7927 89.2401 31.3816 89.6288 32.1379C90.0175 32.8948 90.2121 33.7489 90.2121 34.7008C90.2121 35.6645 90.0175 36.5222 89.6288 37.2726C89.2401 38.023 88.7024 38.6089 88.0158 39.0296C87.3292 39.4504 86.5673 39.6614 85.7288 39.6614C85.0968 39.6614 84.5348 39.5267 84.0434 39.2585C83.5509 38.9903 83.183 38.6541 82.9403 38.2512H82.7949L82.9403 39.5696V43.3215H80.5529V30.0334ZM85.3098 37.446C85.759 37.446 86.178 37.3304 86.5673 37.0985C86.958 36.8646 87.279 36.5295 87.4966 36.1282C87.7274 35.7134 87.8426 35.2378 87.8426 34.7008C87.8426 34.1638 87.7274 33.6875 87.4966 33.2727C87.2804 32.873 86.9589 32.5406 86.5673 32.3119C86.1856 32.0881 85.7512 31.9712 85.3092 31.9734C84.8725 31.9734 84.4588 32.0867 84.0701 32.3119C83.6786 32.5406 83.3571 32.873 83.1408 33.2727C82.91 33.6875 82.7949 34.1638 82.7949 34.7008C82.7949 35.2372 82.91 35.714 83.1408 36.1282C83.3585 36.5295 83.6794 36.8646 84.0701 37.0985C84.4439 37.3261 84.8727 37.4463 85.3098 37.446ZM98.5438 39.6608C97.4015 39.6608 96.3932 39.3378 95.5185 38.6911C94.6438 38.0444 94.0302 37.1295 93.6777 35.9453L95.9921 35.0304C96.1749 35.7259 96.4846 36.2808 96.922 36.6956C97.3593 37.1105 97.9059 37.3179 98.5622 37.3179C99.1088 37.3179 99.577 37.1808 99.9651 36.9066C100.354 36.6319 100.548 36.2504 100.548 35.7623C100.548 35.2741 100.363 34.8742 99.9924 34.5631C99.6221 34.252 98.9628 33.9194 98.0151 33.566L97.214 33.2727C96.3748 32.9801 95.6586 32.5319 95.0628 31.9275C94.4676 31.3237 94.1697 30.5638 94.1697 29.6489C94.1697 28.9653 94.3459 28.3431 94.6984 27.7816C95.0509 27.2202 95.5488 26.7779 96.1927 26.4549C96.8365 26.1313 97.5658 25.9697 98.38 25.9697C99.5586 25.9697 100.488 26.2475 101.168 26.8024C101.849 27.3579 102.316 28.0075 102.571 28.7513L100.402 29.6668C100.271 29.2674 100.027 28.9147 99.701 28.6512C99.3669 28.377 98.9385 28.2394 98.4162 28.2394C97.8821 28.2394 97.4412 28.3645 97.0953 28.6149C96.7487 28.8652 96.5754 29.1912 96.5754 29.5941C96.5754 29.9845 96.7398 30.3171 97.068 30.5912C97.3955 30.866 97.9361 31.1312 98.6898 31.3875L99.5099 31.6617C100.64 32.0527 101.505 32.5682 102.107 33.2089C102.708 33.8497 103.009 34.6883 103.009 35.7259C103.009 36.58 102.79 37.303 102.353 37.8948C101.921 38.4823 101.338 38.9408 100.667 39.2216C99.9964 39.5112 99.2739 39.6606 98.5438 39.6608ZM107.858 39.5148C107.424 39.5194 106.992 39.4483 106.582 39.3044C106.194 39.1637 105.878 38.9718 105.635 38.7275C105.064 38.1785 104.778 37.3977 104.778 36.3851V32.0831H103.157V30.0328H104.778V27.3972H107.166V30.0334H109.444V32.0837H107.165V35.9459C107.165 36.4215 107.269 36.7624 107.475 36.9704C107.646 37.1653 107.937 37.263 108.35 37.263C108.582 37.263 108.773 37.2332 108.924 37.1719C109.129 37.0833 109.327 36.9793 109.517 36.8607V39.2031C108.989 39.4118 108.426 39.5176 107.858 39.5148ZM114.803 39.6608C113.844 39.6608 112.987 39.4445 112.234 39.0112C111.496 38.5934 110.887 37.9789 110.475 37.2356C110.056 36.4852 109.846 35.6401 109.846 34.7008C109.846 33.7734 110.056 32.9312 110.475 32.1749C110.885 31.4275 111.494 30.8094 112.234 30.3898C112.987 29.9571 113.844 29.7401 114.803 29.7401C115.751 29.7401 116.601 29.9571 117.355 30.3898C118.095 30.8094 118.703 31.4275 119.113 32.1749C119.533 32.9318 119.742 33.7734 119.742 34.7008C119.742 35.6401 119.533 36.4852 119.113 37.2356C118.701 37.9791 118.093 38.5938 117.355 39.0118C116.601 39.4445 115.751 39.6614 114.803 39.6614V39.6608ZM114.803 37.446C115.25 37.4501 115.69 37.3367 116.079 37.117C116.471 36.8935 116.794 36.5637 117.008 36.1652C117.24 35.7504 117.355 35.2622 117.355 34.7008C117.355 34.1512 117.239 33.6697 117.008 33.2548C116.794 32.8563 116.471 32.5265 116.079 32.303C115.69 32.0831 115.25 31.9695 114.803 31.9734C114.356 31.9695 113.917 32.0831 113.527 32.303C113.139 32.5223 112.826 32.8394 112.59 33.2548C112.352 33.6697 112.234 34.1512 112.234 34.7008C112.234 35.2497 112.352 35.7349 112.59 36.1556C112.826 36.577 113.139 36.8971 113.527 37.117C113.917 37.3367 114.357 37.4501 114.803 37.446ZM120.637 30.0334H122.878V31.2779H123.024C123.255 30.8386 123.614 30.4756 124.1 30.1889C124.586 29.9022 125.14 29.7534 125.703 29.7586C126.129 29.7586 126.517 29.826 126.87 29.9601V32.3578C126.598 32.2539 126.322 32.1653 126.04 32.0926C125.804 32.0363 125.563 32.0084 125.32 32.0098C124.616 32.0098 124.056 32.2661 123.644 32.7786C123.231 33.2912 123.024 33.9379 123.024 34.7192V39.3682H120.637V30.0334H120.637ZM131.482 39.6608C130.559 39.6608 129.727 39.4474 128.985 39.0201C128.255 38.6035 127.652 37.9924 127.245 37.2541C126.826 36.5031 126.616 35.6586 126.616 34.7192C126.61 33.8529 126.823 32.9993 127.236 32.2386C127.636 31.4899 128.227 30.8615 128.949 30.4178C129.678 29.966 130.492 29.7401 131.391 29.7401C132.351 29.7401 133.177 29.9475 133.869 30.3624C134.549 30.7632 135.097 31.3549 135.446 32.0646C135.804 32.7846 135.984 33.5844 135.984 34.463C135.984 34.7431 135.965 35.0113 135.929 35.2676H128.949C129.07 36.0126 129.365 36.577 129.833 36.9615C130.3 37.3453 130.862 37.5378 131.518 37.5378C132.065 37.5378 132.536 37.4186 132.931 37.1808C133.321 36.9475 133.644 36.6165 133.869 36.22L135.802 37.1719C134.854 38.8312 133.414 39.6608 131.482 39.6608ZM133.687 33.566C133.663 33.2727 133.557 32.9831 133.368 32.6964C133.18 32.4097 132.919 32.1719 132.585 31.9823C132.25 31.7934 131.859 31.6986 131.409 31.6986C130.838 31.6986 130.349 31.8667 129.942 32.2023C129.535 32.5378 129.241 32.992 129.058 33.566H133.687Z" fill="#12213C"/>
</svg>
