<svg width="168" height="20" viewBox="0 0 168 20" fill="none" xmlns="http://www.w3.org/2000/svg">
<g clip-path="url(#clip0)">
<path d="M122.254 14.8H119.397C118.911 14.8 118.482 14.9714 118.111 15.3429C117.482 16.0571 116.711 16.4286 115.825 16.4286C113.711 16.4571 112.654 14.9429 112.654 11.9429C112.654 8.94286 113.654 7.42857 115.654 7.42857C116.854 7.42857 117.654 7.97143 118.111 9H122.254C121.597 5.71428 119.425 4.08571 115.768 4.08571C111.111 4.17143 108.797 6.77143 108.797 11.9429C108.911 17.1429 111.254 19.7714 115.825 19.7714C119.34 19.8571 121.568 17.8857 122.254 14.8Z" fill="#EA844B"/>
<path d="M129.571 16.6286C128.371 16.6286 127.743 16.0571 127.657 14.8571C127.657 13.7429 128.429 13.0286 129.943 12.7429C131.057 12.5143 132.086 12.2 132.971 11.8286V13.2286C132.971 15.3714 131.686 16.6286 129.571 16.6286ZM130.457 7.2C132.029 7.2 132.829 7.62857 132.914 8.48571C132.914 9.31428 132.086 9.8 130.457 10C126.629 10.3714 124 11.3429 123.914 14.9714C123.914 18.3143 126.429 20 130.057 19.7143C134.143 19.4286 136.657 17.5714 136.657 13.4V8.25714C136.571 5.45714 134.457 4.08571 130.286 4.08571C126.8 4.08571 124.829 5.45714 124.371 8.25714H128.171C128.371 7.54285 129.114 7.2 130.457 7.2Z" fill="#EA844B"/>
<path d="M141.944 14.4571H138.058C138.058 16.2 138.63 17.5143 139.773 18.3714C140.801 19.2571 142.401 19.7143 144.516 19.7143C148.516 19.7143 151.43 18.3429 151.43 14.6286C151.43 13.6 151.087 12.6857 150.373 11.9429C149.544 11.1714 147.858 10.5143 145.287 10C143.316 9.62857 142.344 9.02857 142.344 8.25714C142.344 7.48571 143.087 7.08571 144.573 7.08571C145.83 7.08571 146.601 7.45714 146.858 8.11428C147.087 8.71428 147.658 9.02857 148.544 9.05714H150.944C150.858 7.48571 150.258 6.25714 149.144 5.37143C148.001 4.51428 146.458 4.08571 144.516 4.08571C141.058 4.14286 138.487 5.68571 138.487 8.94285C138.516 11.3143 140.23 12.8 143.573 13.4C146.173 13.8571 147.487 14.4857 147.487 15.2571C147.487 16.2286 146.687 16.6857 145.087 16.6857C143.23 16.6857 142.03 16.1143 141.944 14.4571Z" fill="#EA844B"/>
<path d="M163.251 11.6857V19.4286H167.022V10.6571C167.137 7.37143 166.137 5.34286 164.022 4.57143C161.194 3.57143 158.822 4.2 156.88 6.42857V1.91429C156.88 0.657143 156.251 0 154.994 0H153.08V19.4286H156.88V11.6857C156.88 9.37143 157.851 7.48571 160.108 7.48571C162.28 7.48571 163.251 9.14286 163.251 11.6857Z" fill="#EA844B"/>
<path d="M21.2122 13.9796H18.3551C17.8694 13.9796 17.4408 14.151 17.0694 14.5224C16.4408 15.2367 15.6694 15.6082 14.7837 15.6082C12.6694 15.6367 11.6122 14.1224 11.6122 11.1224C11.6122 8.12245 12.6122 6.60816 14.6122 6.60816C15.8122 6.60816 16.6122 7.15102 17.0694 8.17959H21.2122C20.5551 4.89388 18.3837 3.2653 14.7265 3.2653C10.0694 3.35102 7.7551 5.95102 7.7551 11.1224C7.86939 16.3224 10.2122 18.951 14.7837 18.951C18.298 19.0367 20.5265 17.0653 21.2122 13.9796Z" fill="#EA844B"/>
<path d="M31.9633 1.91429C31.9633 0.657143 31.3347 0 30.0776 0H28.1633V12.8857C28.1633 17.4286 30.5347 19.6857 35.249 19.6571C39.9347 19.5714 42.2776 17.0286 42.2776 12C42.2776 6.85714 40.2776 4.22857 36.249 4.08571C34.3633 4.08571 32.9347 4.85714 31.9633 6.42857V1.91429ZM35.1918 7.48571C37.249 7.48571 38.3061 8.91429 38.3918 11.8286C38.3918 14.8857 37.3061 16.4286 35.1347 16.4286C32.9633 16.4286 31.9347 14.8857 31.9633 11.8286C32.0776 8.91429 33.1347 7.48571 35.1918 7.48571Z" fill="#613EC2"/>
<path d="M45.9551 0H43.9837V19.4286H47.7837V1.85714C47.7837 0.857143 46.9551 0 45.9551 0Z" fill="#613EC2"/>
<path d="M56.6694 4.08571C52.098 4.08571 49.8122 6.68571 49.8122 11.9429C49.8122 17.1429 52.098 19.7714 56.6694 19.7714C61.2408 19.7714 63.5551 17.1429 63.5551 11.9429C63.5551 6.68571 61.2408 4.08571 56.6694 4.08571ZM56.6694 7.42857C58.6122 7.42857 59.5837 8.88571 59.5837 11.8286C59.5551 14.8286 58.5837 16.3714 56.6408 16.3714C54.698 16.3714 53.698 14.8857 53.6694 11.9429C53.6694 8.94286 54.6694 7.42857 56.6694 7.42857Z" fill="#613EC2"/>
<path d="M78.7269 14.8H75.8698C75.3841 14.8 74.9555 14.9714 74.5841 15.3429C73.9555 16.0571 73.1841 16.4286 72.2984 16.4286C70.1841 16.4571 69.1269 14.9429 69.1269 11.9429C69.1269 8.94286 70.1269 7.42857 72.1269 7.42857C73.3269 7.42857 74.1269 7.97143 74.5841 9H78.7269C78.0698 5.71428 75.8984 4.08571 72.2412 4.08571C67.5841 4.17143 65.2698 6.77143 65.2698 11.9429C65.3841 17.1429 67.7269 19.7714 72.2984 19.7714C75.8127 19.8571 78.0412 17.8857 78.7269 14.8Z" fill="#613EC2"/>
<path d="M82.7016 0H80.7302V19.4286H84.5302V13.9143C84.5302 13.5143 84.7302 13.2571 85.1302 13.1714C85.6159 13.1714 86.1016 13.6 86.5873 14.4571L89.2731 19.4286H93.8445L88.5588 10.4571L93.7873 4.85714H89.2159L84.5302 10.2286V1.85714C84.5302 0.857143 83.7016 0 82.7016 0Z" fill="#613EC2"/>
<path d="M99.9955 16.6286C98.7955 16.6286 98.1669 16.0571 98.0812 14.8571C98.0812 13.7429 98.8527 13.0286 100.367 12.7429C101.481 12.5143 102.51 12.2 103.396 11.8286V13.2286C103.396 15.3714 102.11 16.6286 99.9955 16.6286ZM100.881 7.2C102.453 7.2 103.253 7.62857 103.338 8.48571C103.338 9.31428 102.51 9.8 100.881 10C97.0527 10.3714 94.4241 11.3429 94.3384 14.9714C94.3384 18.3143 96.8527 20 100.481 19.7143C104.567 19.4286 107.081 17.5714 107.081 13.4V8.25714C106.996 5.45714 104.881 4.08571 100.71 4.08571C97.2241 4.08571 95.2526 5.45714 94.7955 8.25714H98.5955C98.7955 7.54285 99.5384 7.2 100.881 7.2Z" fill="#613EC2"/>
<path d="M3.8 1.91429C3.8 0.657143 3.17143 0 1.91429 0H0V12.8857C0 17.4286 2.37143 19.6857 7.08571 19.6571C11.7714 19.5714 14.1143 17.0286 14.1143 12C14.1143 6.85714 12.1143 4.22857 8.08571 4.08571C6.2 4.08571 4.77143 4.85714 3.8 6.42857V1.91429ZM7.02857 7.48571C9.08571 7.48571 10.1429 8.91429 10.2286 11.8286C10.2286 14.8857 9.14286 16.4286 6.97143 16.4286C4.8 16.4286 3.77143 14.8857 3.8 11.8286C3.91429 8.91429 4.97143 7.48571 7.02857 7.48571Z" fill="#613EC2"/>
</g>
<defs>
<clipPath id="clip0">
<rect width="167.347" height="20" fill="white"/>
</clipPath>
</defs>
</svg>
