<svg width="156" height="52" viewBox="0 0 156 52" fill="none" xmlns="http://www.w3.org/2000/svg">
<path fill-rule="evenodd" clip-rule="evenodd" d="M6.03396 0H149.966C152.064 0 152.825 0.219334 153.592 0.631777C154.35 1.03476 154.97 1.65733 155.371 2.41863C155.781 3.18868 156 3.95278 156 6.06029V45.9397C156 48.0472 155.781 48.8113 155.371 49.5814C154.97 50.3427 154.35 50.9652 153.592 51.3682C152.825 51.7807 152.064 52 149.966 52H6.03396C3.93561 52 3.17483 51.7807 2.40813 51.3682C1.64991 50.9653 1.02983 50.3428 0.628439 49.5814C0.219568 48.8113 0 48.0472 0 45.9397V6.06029C0 3.95278 0.218381 3.18868 0.629032 2.41863C1.03017 1.6571 1.65004 1.03432 2.40813 0.631181C3.17483 0.220526 3.93561 0 6.03396 0Z" fill="white"/>
<path d="M20.374 38.5415C20.933 38.6398 21.5935 38.5188 22.2997 38.1421L34.6827 31.5371L31.0806 27.9848L20.374 38.5415ZM19.3516 15.8839C19.0448 16.3285 18.8679 16.9407 18.8679 17.694V36.0441C18.8679 36.7778 19.0353 37.3774 19.3266 37.8185L30.1638 26.8381L19.3516 15.8839ZM35.4358 22.1695L23.0154 15.5615C22.3252 15.1943 21.6784 15.0686 21.1271 15.1526L31.8384 25.7164L35.4358 22.1695ZM36.3568 31.0114L39.9541 29.1339C41.9635 28.0867 41.9623 26.3744 39.9518 25.329L36.3348 23.4474L32.4236 27.2183L36.3568 31.0114ZM62.0486 18.6566C61.3595 18.6624 60.6812 18.485 60.0826 18.1422C59.4904 17.8065 58.9977 17.3188 58.6548 16.7291C58.3029 16.1301 58.1266 15.4631 58.1266 14.7276C58.1266 13.9928 58.3029 13.3252 58.6548 12.7268C58.9978 12.1373 59.4905 11.6498 60.0826 11.3143C60.6811 10.9711 61.3594 10.7932 62.0486 10.7987C62.6135 10.7987 63.1405 10.9 63.6283 11.1039C64.1161 11.3065 64.5244 11.5902 64.8519 11.9544L64.036 12.7739C63.7943 12.5023 63.4963 12.2871 63.1631 12.1433C62.8073 11.9928 62.4245 11.9177 62.0385 11.9228C61.5572 11.9228 61.1074 12.0384 60.6891 12.2697C60.2709 12.5006 59.9236 12.8422 59.685 13.2573C59.434 13.6846 59.3088 14.1745 59.3088 14.7276C59.3088 15.2813 59.434 15.7713 59.685 16.1986C59.9236 16.6137 60.2709 16.9553 60.6891 17.1862C61.1053 17.4166 61.5734 17.5358 62.0486 17.5325C62.4949 17.5325 62.8681 17.4663 63.1678 17.3328C63.4647 17.2019 63.737 17.0208 63.9731 16.7976C64.1268 16.6432 64.2579 16.4507 64.3653 16.2195C64.4759 15.9802 64.5484 15.725 64.5802 15.4631H62.0385V14.4129H65.6887C65.7237 14.609 65.7409 14.8123 65.7409 15.0221C65.7409 15.4983 65.6679 15.9554 65.5213 16.3929C65.3799 16.8226 65.1401 17.2129 64.8211 17.5325C64.1161 18.2823 63.1921 18.6566 62.0486 18.6566ZM69.2866 18.6566C68.7638 18.6566 68.295 18.5344 67.8802 18.2888C67.4689 18.0478 67.1321 17.6971 66.907 17.2756C66.6738 16.8447 66.5569 16.3595 66.5569 15.8201C66.5531 15.325 66.6698 14.8364 66.8969 14.3969C67.1138 13.9698 67.4406 13.6088 67.8434 13.3514C68.2475 13.0928 68.708 12.9628 69.2237 12.9628C69.7608 12.9628 70.2266 13.082 70.6201 13.3205C71.0141 13.5583 71.3144 13.8837 71.5197 14.2973C71.7256 14.7104 71.8283 15.1758 71.8283 15.6944C71.8283 15.7921 71.8182 15.9149 71.7968 16.0621H67.7075C67.7491 16.5592 67.9253 16.9424 68.2357 17.2124C68.534 17.4774 68.9198 17.6215 69.3181 17.6165C69.6456 17.6165 69.9299 17.5414 70.1708 17.3906C70.4112 17.2404 70.6046 17.0354 70.7512 16.7767L71.7238 17.2387C71.4887 17.6631 71.1504 18.0209 70.7405 18.2787C70.3364 18.5308 69.8516 18.6566 69.2866 18.6566ZM70.6574 15.1794C70.6406 14.9811 70.5797 14.7891 70.4794 14.6174C70.3649 14.422 70.2006 14.2607 70.0035 14.1501C69.7904 14.0237 69.5305 13.9612 69.2237 13.9612C68.8546 13.9612 68.5425 14.0714 68.2879 14.292C68.0333 14.5125 67.8571 14.8081 67.7597 15.18H70.6568L70.6574 15.1794ZM74.9034 18.5725C74.666 18.5725 74.4435 18.5344 74.234 18.4569C74.0251 18.38 73.8542 18.2781 73.7213 18.1529C73.4216 17.8514 73.2715 17.4419 73.2715 16.9234V14.1501H72.341V13.1309H73.2715V11.6182H74.4227V13.1309H75.7194V14.1501H74.4221V16.6713C74.4221 16.9585 74.4779 17.1618 74.5895 17.2804C74.6945 17.4204 74.8755 17.4908 75.1337 17.4908C75.2523 17.4908 75.3568 17.4747 75.4476 17.4431C75.5378 17.4121 75.6357 17.3608 75.7401 17.2911V18.4152C75.5099 18.5201 75.231 18.5725 74.9034 18.5725ZM79.9238 12.3537C79.7078 12.3537 79.525 12.2786 79.3749 12.1278C79.3019 12.0562 79.2443 11.9704 79.2056 11.8755C79.1669 11.7807 79.148 11.679 79.15 11.5765C79.15 11.359 79.2247 11.1754 79.3749 11.0246C79.525 10.8744 79.7078 10.7987 79.9238 10.7987C80.1404 10.7987 80.3232 10.8744 80.4733 11.0252C80.6229 11.1754 80.6982 11.359 80.6982 11.5765C80.6982 11.7935 80.6228 11.977 80.4727 12.1278C80.4014 12.2011 80.3159 12.259 80.2215 12.2978C80.1271 12.3367 80.0258 12.3557 79.9238 12.3537ZM79.3482 13.1309H80.4994V18.4891H79.3482V13.1309ZM84.0659 18.5725C83.8285 18.5725 83.6054 18.5344 83.3965 18.4569C83.187 18.38 83.0167 18.2781 82.8838 18.1529C82.5841 17.8514 82.434 17.4419 82.434 16.9234V14.1501H81.5035V13.1309H82.434V11.6182H83.5852V13.1309H84.8819V14.1501H83.5846V16.6713C83.5846 16.9585 83.6404 17.1618 83.752 17.2804C83.8564 17.4204 84.038 17.4908 84.2962 17.4908C84.4148 17.4908 84.5193 17.4747 84.6095 17.4431C84.7003 17.4121 84.7982 17.3608 84.9026 17.2911V18.4152C84.6724 18.5201 84.3935 18.5725 84.0659 18.5725ZM90.9271 18.6566C90.3901 18.6566 89.9094 18.5326 89.4839 18.2841C89.0644 18.0417 88.7203 17.687 88.4899 17.2595C88.2531 16.8256 88.1344 16.3417 88.1344 15.81C88.1344 15.2778 88.2531 14.7944 88.4905 14.3599C88.7208 13.9328 89.0647 13.5783 89.4839 13.3359C89.9094 13.0874 90.3901 12.9628 90.9271 12.9628C91.4642 12.9628 91.9454 13.0892 92.3709 13.3413C92.7896 13.5866 93.1332 13.9427 93.3643 14.3706C93.6017 14.8051 93.7204 15.2843 93.7204 15.81C93.7204 16.3422 93.6017 16.8256 93.3643 17.2595C93.1341 17.6869 92.7902 18.0416 92.3709 18.2841C91.9454 18.5326 91.4642 18.6566 90.9271 18.6566ZM90.9271 17.5957C91.2203 17.5957 91.4921 17.5241 91.7431 17.3805C91.9941 17.2369 92.1941 17.0301 92.3442 16.7607C92.4943 16.4907 92.5697 16.1742 92.5697 15.81C92.5697 15.4458 92.4943 15.1305 92.3442 14.8641C92.2038 14.6079 91.9958 14.3955 91.7431 14.2502C91.4948 14.1072 91.2133 14.0328 90.9271 14.0345C90.6346 14.0345 90.3622 14.106 90.1111 14.2496C89.8601 14.3933 89.6601 14.5983 89.51 14.8641C89.3599 15.1305 89.2851 15.4458 89.2851 15.81C89.2851 16.1736 89.3599 16.4907 89.51 16.7607C89.6601 17.0301 89.8601 17.2369 90.1111 17.3805C90.3622 17.5236 90.6346 17.5957 90.9271 17.5957ZM94.6716 13.1315H95.7695V13.8348H95.8223C95.9754 13.5827 96.2039 13.3747 96.5071 13.2096C96.8037 13.0468 97.1364 12.9619 97.4744 12.9628C98.123 12.9628 98.6167 13.1536 98.955 13.535C99.2932 13.9171 99.4624 14.4374 99.4624 15.0954V18.4885H98.3111V15.2533C98.3111 14.8331 98.2085 14.525 98.0025 14.3289C97.7972 14.1322 97.513 14.0345 97.1504 14.0345C96.8928 14.0345 96.6626 14.106 96.4602 14.2496C96.2585 14.3933 96.1012 14.584 95.9896 14.8218C95.8781 15.0602 95.8223 15.3165 95.8223 15.5895V18.4885H94.6716V13.1309V13.1315ZM57.951 26.2617H62.5441C63.3702 26.2617 64.1232 26.4358 64.8039 26.7839C65.484 27.1313 66.0186 27.6195 66.4073 28.2477C66.796 28.8765 66.9907 29.5935 66.9907 30.3987C66.9907 31.2039 66.796 31.9239 66.4073 32.5586C66.0209 33.191 65.4653 33.7016 64.8039 34.032C64.1232 34.3795 63.3702 34.5535 62.5441 34.5535H60.4107V39.3675H57.9504V26.2623L57.951 26.2617ZM62.6165 32.2106C63.2242 32.2106 63.7013 32.0336 64.0473 31.6801C64.3938 31.3261 64.5665 30.8993 64.5665 30.3987C64.5665 29.898 64.3938 29.4743 64.0473 29.1262C63.7013 28.7787 63.2242 28.6047 62.6171 28.6047H60.4107V32.2106H62.6159H62.6165ZM68.0855 26.2623H70.4729V39.3675H68.0855V26.2623ZM74.8304 39.6608C73.8465 39.6608 73.0383 39.3705 72.4069 38.7906C71.7749 38.2113 71.4592 37.4519 71.4592 36.512C71.4592 35.8898 71.6229 35.3409 71.9511 34.8646C72.2793 34.389 72.7285 34.0231 73.2994 33.7668C73.8708 33.5105 74.5023 33.3823 75.1948 33.3823C76.1549 33.3823 76.9751 33.5224 77.6551 33.8031V33.4002C77.6551 32.8877 77.464 32.4728 77.0813 32.1557C76.6985 31.8387 76.1852 31.6801 75.5413 31.6801C75.104 31.6801 74.6815 31.7803 74.2744 31.9817C73.8837 32.1702 73.5387 32.442 73.2632 32.778L71.7321 31.5699C72.1788 30.9866 72.7606 30.5217 73.427 30.2157C74.1076 29.898 74.8488 29.7395 75.6505 29.7395C77.0718 29.7395 78.1536 30.0691 78.8942 30.7283C79.636 31.3869 80.0063 32.3512 80.0063 33.6202V39.3675H77.6551V38.4157H77.5091C77.2302 38.7817 76.8623 39.0809 76.4066 39.3127C75.9514 39.5446 75.4256 39.6602 74.8304 39.6602V39.6608ZM75.3954 37.7935C76.0879 37.7935 76.6374 37.5705 77.0451 37.1253C77.4516 36.6801 77.6551 36.158 77.6551 35.5602C77.0458 35.2697 76.3796 35.1196 75.7051 35.1209C74.466 35.1209 73.8465 35.5846 73.8465 36.512C73.8465 36.8905 73.98 37.1986 74.2471 37.4364C74.5141 37.6749 74.8975 37.7935 75.3954 37.7935ZM84.181 38.9283L80.2632 30.0327H82.9782L85.3839 35.8349H85.5299L87.8443 30.0327H90.5052L84.7644 43.3209H82.1948L84.181 38.9283ZM98.3087 39.6602C97.1664 39.6602 96.1582 39.3371 95.2835 38.6905C94.4081 38.0438 93.7951 37.1289 93.4426 35.9446L95.757 35.0297C95.9392 35.7253 96.2495 36.2802 96.6863 36.695C97.1237 37.1098 97.6708 37.3172 98.3265 37.3172C98.8737 37.3172 99.3413 37.1802 99.73 36.906C100.119 36.6312 100.313 36.2498 100.313 35.7616C100.313 35.2735 100.128 34.8736 99.7573 34.5625C99.387 34.2513 98.7277 33.9188 97.78 33.5653L96.9783 33.2721C96.1398 32.9794 95.4235 32.5312 94.8277 31.9269C94.2325 31.3231 93.9346 30.5632 93.9346 29.6483C93.9346 28.9647 94.1108 28.3424 94.4628 27.781C94.8152 27.2195 95.3137 26.7773 95.9576 26.4543C96.6015 26.1306 97.3302 25.9691 98.1444 25.9691C99.3229 25.9691 100.252 26.2468 100.933 26.8017C101.613 27.3572 102.081 28.0069 102.336 28.7507L100.167 29.6662C100.036 29.2668 99.7923 28.9141 99.4659 28.6506C99.1318 28.3764 98.7034 28.2387 98.1812 28.2387C97.6465 28.2387 97.2062 28.3639 96.8596 28.6142C96.5136 28.8645 96.3403 29.1906 96.3403 29.5935C96.3403 29.9839 96.5041 30.3164 96.8323 30.5906C97.1605 30.8654 97.7011 31.1306 98.4541 31.3869L99.2742 31.661C100.404 32.052 101.27 32.5676 101.871 33.2083C102.473 33.849 102.773 34.6876 102.773 35.7253C102.773 36.5794 102.555 37.3023 102.117 37.8942C101.686 38.4815 101.103 38.9401 100.432 39.2209C99.7613 39.5105 99.0388 39.66 98.3087 39.6602ZM107.623 39.5142C107.188 39.5188 106.757 39.4476 106.347 39.3038C105.959 39.1631 105.642 38.9712 105.4 38.7268C104.828 38.1779 104.543 37.3971 104.543 36.3845V32.0824H102.921V30.0321H104.543V27.3966H106.93V30.0327H109.209V32.083H106.93V35.9452C106.93 36.4208 107.033 36.7618 107.24 36.9698C107.41 37.1647 107.702 37.2624 108.115 37.2624C108.346 37.2624 108.537 37.2326 108.689 37.1712C108.894 37.0827 109.092 36.9787 109.281 36.8601V39.2024C108.753 39.4112 108.19 39.517 107.623 39.5142ZM114.568 39.6602C113.608 39.6602 112.752 39.4438 111.998 39.0105C111.26 38.5928 110.652 37.9784 110.24 37.235C109.821 36.4846 109.611 35.6395 109.611 34.7001C109.611 33.7727 109.821 32.9306 110.24 32.1742C110.65 31.4268 111.259 30.8087 111.998 30.3892C112.752 29.9564 113.608 29.7395 114.568 29.7395C115.516 29.7395 116.366 29.9564 117.12 30.3892C117.859 30.8088 118.468 31.4269 118.878 32.1742C119.297 32.9312 119.507 33.7727 119.507 34.7001C119.507 35.6395 119.297 36.4846 118.878 37.235C118.466 37.9786 117.857 38.5933 117.119 39.0111C116.366 39.4438 115.516 39.6608 114.567 39.6608L114.568 39.6602ZM114.568 37.4454C115.015 37.4495 115.455 37.336 115.844 37.1164C116.236 36.8929 116.558 36.5631 116.773 36.1645C117.004 35.7497 117.119 35.2616 117.119 34.7001C117.119 34.1506 117.004 33.669 116.773 33.2542C116.558 32.8557 116.236 32.5258 115.844 32.3024C115.455 32.0825 115.015 31.9689 114.568 31.9728C114.121 31.9689 113.682 32.0825 113.292 32.3024C112.903 32.5217 112.591 32.8388 112.354 33.2542C112.117 33.669 111.998 34.1506 111.998 34.7001C111.998 35.2491 112.117 35.7342 112.354 36.155C112.591 36.5764 112.903 36.8965 113.292 37.1164C113.682 37.336 114.121 37.4495 114.568 37.4454ZM120.401 30.0327H122.643V31.2772H122.789C123.02 30.838 123.378 30.475 123.864 30.1883C124.35 29.9014 124.904 29.7527 125.468 29.758C125.893 29.758 126.282 29.8253 126.634 29.9594V32.3572C126.363 32.2532 126.086 32.1647 125.805 32.092C125.569 32.0356 125.328 32.0078 125.085 32.0091C124.38 32.0091 123.821 32.2654 123.408 32.778C122.995 33.2906 122.789 33.9372 122.789 34.7186V39.3675H120.401V30.0333V30.0327ZM131.247 39.6602C130.324 39.6602 129.491 39.4468 128.75 39.0195C128.019 38.6029 127.417 37.9918 127.009 37.2535C126.59 36.5025 126.38 35.6579 126.38 34.7186C126.374 33.8523 126.588 32.9987 127 32.238C127.401 31.4892 127.992 30.8608 128.714 30.4172C129.442 29.9654 130.256 29.7395 131.156 29.7395C132.116 29.7395 132.942 29.9469 133.634 30.3617C134.314 30.7626 134.862 31.3543 135.21 32.064C135.569 32.7839 135.748 33.5838 135.748 34.4623C135.748 34.7425 135.73 35.0107 135.693 35.2669H128.714C128.835 36.012 129.13 36.5764 129.598 36.9608C130.065 37.3447 130.627 37.5372 131.283 37.5372C131.83 37.5372 132.301 37.418 132.695 37.1802C133.086 36.9469 133.409 36.6158 133.634 36.2194L135.566 37.1712C134.618 38.8305 133.178 39.6602 131.247 39.6602ZM133.452 33.5653C133.428 33.2721 133.321 32.9824 133.133 32.6957C132.945 32.409 132.684 32.1712 132.349 31.9817C132.015 31.7928 131.623 31.698 131.174 31.698C130.603 31.698 130.113 31.8661 129.707 32.2016C129.3 32.5372 129.005 32.9914 128.823 33.5653H133.451H133.452Z" fill="#12213C"/>
</svg>
